<?xml version="1.0" encoding="UTF-8" standalone="no"?>
<!-- Generator: Adobe Illustrator 22.1.0, SVG Export Plug-In . SVG Version: 6.00 Build 0)  -->

<svg
   xmlns:dc="http://purl.org/dc/elements/1.1/"
   xmlns:cc="http://creativecommons.org/ns#"
   xmlns:rdf="http://www.w3.org/1999/02/22-rdf-syntax-ns#"
   xmlns:svg="http://www.w3.org/2000/svg"
   xmlns="http://www.w3.org/2000/svg"
   xmlns:sodipodi="http://sodipodi.sourceforge.net/DTD/sodipodi-0.dtd"
   xmlns:inkscape="http://www.inkscape.org/namespaces/inkscape"
   version="1.1"
   id="Livello_1"
   x="0px"
   y="0px"
   viewBox="0 0 236.8 53"
   xml:space="preserve"
   sodipodi:docname="bitsong_logo_red.svg"
   width="236.8"
   height="53"
   inkscape:version="0.92.3 (2405546, 2018-03-11)"><metadata
   id="metadata27"><rdf:RDF><cc:Work
       rdf:about=""><dc:format>image/svg+xml</dc:format><dc:type
         rdf:resource="http://purl.org/dc/dcmitype/StillImage" /><dc:title></dc:title></cc:Work></rdf:RDF></metadata><defs
   id="defs25" /><sodipodi:namedview
   pagecolor="#ffffff"
   bordercolor="#666666"
   borderopacity="1"
   objecttolerance="10"
   gridtolerance="10"
   guidetolerance="10"
   inkscape:pageopacity="0"
   inkscape:pageshadow="2"
   inkscape:window-width="1853"
   inkscape:window-height="1025"
   id="namedview23"
   showgrid="false"
   inkscape:zoom="1.52"
   inkscape:cx="150"
   inkscape:cy="50"
   inkscape:window-x="67"
   inkscape:window-y="27"
   inkscape:window-maximized="1"
   inkscape:current-layer="Livello_1" />
<style
   type="text/css"
   id="style2">
	.st0{fill:#D32F2F;}
	.st1{fill:url(#SVGID_1_);}
	.st2{fill:url(#SVGID_2_);}
	.st3{fill:#FFFFFF;}
	.st4{fill:#444444;}
	.st5{fill:#D9D9D9;}
</style>
<g
   id="g18"
   transform="translate(-32.7,-21.5)">
	<path
   class="st0"
   d="m 98.9,33.9 c 0,-0.7 0.3,-1.3 0.8,-1.8 0.5,-0.5 1.1,-0.8 1.9,-0.8 0.7,0 1.3,0.3 1.9,0.8 0.5,0.5 0.8,1.1 0.8,1.8 v 7.5 c 2.2,-1.6 4.7,-2.4 7.6,-2.4 3.6,0 6.6,1.2 9.1,3.7 2.5,2.5 3.8,5.5 3.8,9 0,3.5 -1.3,6.5 -3.8,9 -2.5,2.5 -5.5,3.7 -9.1,3.7 -3.6,0 -6.6,-1.2 -9.1,-3.7 -2.5,-2.4 -3.7,-5.4 -3.8,-8.9 z m 7.5,23.1 c 1.5,1.5 3.3,2.2 5.4,2.2 2.1,0 3.9,-0.7 5.4,-2.2 1.5,-1.5 2.2,-3.3 2.2,-5.3 0,-2.1 -0.7,-3.9 -2.2,-5.4 -1.5,-1.5 -3.3,-2.2 -5.4,-2.2 -2.1,0 -3.9,0.7 -5.4,2.2 -1.3,1.3 -2,2.7 -2.2,4.4 v 1 c 0,0.2 0,0.3 0,0.5 0.1,1.9 0.8,3.5 2.2,4.8 z"
   id="path4"
   inkscape:connector-curvature="0"
   style="fill:#d32f2f" />
	<path
   class="st0"
   d="m 132.5,36.4 c -0.7,0 -1.3,-0.3 -1.9,-0.8 -0.5,-0.5 -0.8,-1.1 -0.8,-1.8 0,-0.7 0.3,-1.3 0.8,-1.8 0.5,-0.5 1.1,-0.8 1.9,-0.8 0.7,0 1.3,0.3 1.9,0.8 0.6,0.5 0.8,1.1 0.8,1.8 0,0.7 -0.3,1.3 -0.8,1.8 -0.5,0.5 -1.2,0.8 -1.9,0.8 z m 0,28 c -0.7,0 -1.3,-0.3 -1.9,-0.8 -0.5,-0.5 -0.8,-1.1 -0.8,-1.8 V 41.4 c 0,-0.7 0.3,-1.3 0.8,-1.8 0.5,-0.5 1.1,-0.8 1.9,-0.8 0.7,0 1.3,0.3 1.9,0.8 0.5,0.5 0.8,1.1 0.8,1.8 v 20.4 c 0,0.7 -0.3,1.3 -0.8,1.8 -0.5,0.5 -1.1,0.8 -1.9,0.8 z"
   id="path6"
   inkscape:connector-curvature="0"
   style="fill:#d32f2f" />
	<path
   class="st0"
   d="M 146.3,38.8 V 34 c 0,-0.7 0.3,-1.3 0.8,-1.8 0.5,-0.5 1.1,-0.8 1.9,-0.8 0.7,0 1.3,0.3 1.9,0.8 0.5,0.5 0.8,1.1 0.8,1.8 v 4.8 h 2.9 c 0.7,0 1.3,0.3 1.9,0.8 0.5,0.5 0.8,1.1 0.8,1.8 0,0.7 -0.3,1.3 -0.8,1.8 -0.5,0.5 -1.1,0.8 -1.9,0.8 h -2.9 v 17.7 c 0,0.7 -0.3,1.3 -0.8,1.8 -0.5,0.5 -1.1,0.8 -1.9,0.8 -0.7,0 -1.3,-0.3 -1.9,-0.8 -0.5,-0.5 -0.8,-1.1 -0.8,-1.8 V 44 h -3 c -0.7,0 -1.3,-0.3 -1.9,-0.8 -0.5,-0.5 -0.8,-1.1 -0.8,-1.8 0,-0.7 0.3,-1.3 0.8,-1.8 0.5,-0.5 1.1,-0.8 1.9,-0.8 z"
   id="path8"
   inkscape:connector-curvature="0"
   style="fill:#d32f2f" />
	<path
   class="st0"
   d="m 167.6,38.9 c 0.7,0 1.3,0.2 1.8,0.7 0.5,0.5 0.7,1.1 0.7,1.8 0,0.7 -0.2,1.3 -0.7,1.8 -0.5,0.5 -1.1,0.8 -1.8,0.8 -0.4,0 -0.7,0.1 -0.9,0.4 -0.2,0.2 -0.4,0.5 -0.4,0.9 0,0.4 0.1,0.7 0.4,0.9 0.2,0.2 0.6,0.4 0.9,0.4 2.5,0 4.6,0.9 6.4,2.6 1.8,1.7 2.6,3.8 2.6,6.3 0,2.5 -0.9,4.6 -2.6,6.3 -1.8,1.7 -3.9,2.6 -6.4,2.6 -2.5,0 -4.6,-0.9 -6.4,-2.6 -1.8,-1.7 -2.6,-3.8 -2.6,-6.3 0,-0.7 0.3,-1.3 0.8,-1.8 0.5,-0.5 1.1,-0.7 1.8,-0.7 0.7,0 1.3,0.2 1.8,0.7 0.5,0.5 0.7,1.1 0.7,1.8 0,1.1 0.4,2 1.1,2.7 0.7,0.7 1.7,1.1 2.7,1.1 1.1,0 2,-0.4 2.7,-1.1 0.8,-0.7 1.1,-1.6 1.1,-2.7 0,-1.1 -0.4,-2 -1.1,-2.7 -0.8,-0.7 -1.7,-1.1 -2.7,-1.1 -1.8,0 -3.3,-0.6 -4.6,-1.9 -1.3,-1.2 -1.9,-2.7 -1.9,-4.5 0,-1.8 0.6,-3.3 1.9,-4.5 1.4,-1.3 2.9,-1.9 4.7,-1.9 z"
   id="path10"
   inkscape:connector-curvature="0"
   style="fill:#d32f2f" />
	<path
   class="st0"
   d="m 203.8,42.6 c 2.5,2.5 3.8,5.5 3.8,9 0,3.5 -1.3,6.5 -3.8,9 -2.5,2.5 -5.5,3.7 -9.1,3.7 -3.6,0 -6.6,-1.2 -9.1,-3.7 -2.5,-2.5 -3.8,-5.5 -3.8,-9 0,-3.5 1.3,-6.5 3.8,-9 2.5,-2.5 5.5,-3.7 9.1,-3.7 3.5,0 6.5,1.3 9.1,3.7 z m -9.1,1.5 c -2.1,0 -3.9,0.7 -5.4,2.2 -1.5,1.5 -2.2,3.3 -2.2,5.3 0,2.1 0.7,3.9 2.2,5.4 1.5,1.5 3.3,2.2 5.4,2.2 2.1,0 3.9,-0.7 5.4,-2.2 1.5,-1.5 2.2,-3.3 2.2,-5.4 0,-2.1 -0.7,-3.9 -2.2,-5.3 -1.5,-1.5 -3.3,-2.2 -5.4,-2.2 z"
   id="path12"
   inkscape:connector-curvature="0"
   style="fill:#d32f2f" />
	<path
   class="st0"
   d="m 225.9,38.9 c 3.6,0.2 6.6,1.5 8.9,3.8 2.5,2.4 3.7,5.4 3.8,8.9 v 9.8 c 0,1 -0.3,1.7 -0.8,2.2 -0.5,0.5 -1.1,0.8 -1.9,0.8 -0.7,0 -1.3,-0.3 -1.9,-0.8 -0.5,-0.5 -0.8,-1.2 -0.8,-2.2 v -9.8 c 0,-0.2 0,-0.3 0,-0.5 -0.1,-1.9 -0.8,-3.5 -2.2,-4.8 -1.5,-1.5 -3.3,-2.2 -5.4,-2.2 h -0.1 c -2.1,0 -3.9,0.7 -5.4,2.2 -1.4,1.3 -2.1,2.9 -2.2,4.8 0,0.2 0,0.3 0,0.5 v 9.8 c 0,1 -0.3,1.7 -0.8,2.2 -0.5,0.5 -1.1,0.8 -1.9,0.8 -0.7,0 -1.3,-0.3 -1.9,-0.8 -0.5,-0.5 -0.8,-1.3 -0.8,-2.2 v -9.8 c 0,-3.5 1.3,-6.4 3.8,-8.9 2.3,-2.3 5.3,-3.6 8.9,-3.8 z"
   id="path14"
   inkscape:connector-curvature="0"
   style="fill:#d32f2f" />
	<path
   class="st0"
   d="m 264.2,61.9 c -2.2,1.6 -4.7,2.4 -7.6,2.4 -3.6,0 -6.6,-1.2 -9.1,-3.7 -2.5,-2.5 -3.8,-5.5 -3.8,-9 0,-3.5 1.3,-6.5 3.8,-9 2.5,-2.5 5.5,-3.7 9.1,-3.7 3.6,0 6.6,1.2 9.1,3.7 2.5,2.5 3.8,5.5 3.8,9 v 0 10.1 c 0,0.1 0,0.3 0,0.4 -0.1,3.4 -1.3,6.3 -3.8,8.7 -2.5,2.5 -5.5,3.7 -9.1,3.7 h -0.1 c -0.7,0 -1.3,-0.3 -1.9,-0.8 -0.6,-0.5 -0.8,-1.1 -0.8,-1.8 0,-0.7 0.3,-1.3 0.8,-1.8 0.5,-0.5 1.1,-0.8 1.9,-0.8 0.1,0 0.2,0 0.4,0 2,-0.1 3.7,-0.8 5.2,-2.2 1.4,-1.4 2.1,-3.2 2.1,-5.2 z M 256.6,44 c -2.1,0 -3.9,0.7 -5.4,2.2 -1.5,1.5 -2.2,3.3 -2.2,5.3 0,2.1 0.7,3.9 2.2,5.4 1.5,1.5 3.3,2.2 5.4,2.2 2.1,0 3.9,-0.7 5.4,-2.2 1.5,-1.5 2.2,-3.3 2.2,-5.4 0,-2.1 -0.7,-3.9 -2.2,-5.3 -1.5,-1.4 -3.3,-2.2 -5.4,-2.2 z"
   id="path16"
   inkscape:connector-curvature="0"
   style="fill:#d32f2f" />
</g>
<path
   class="st0"
   d="m 26.6,0 c -2,0 -4,0.2 -6,0.7 0,0.1 0,0.2 0,0.3 v 32.5 c 0,0.7 -0.6,1.2 -1.2,1.2 H 17 c -0.5,0 -0.9,-0.4 -0.9,-0.9 V 2.1 C 6.6,6.1 0,15.5 0,26.3 0,40.9 11.9,52.7 26.7,52.7 41.3,52.7 53.3,40.9 53.3,26.4 53.3,11.8 41.3,0 26.6,0 Z m -0.5,37.3 c 0,0.6 -0.5,1.1 -1.1,1.1 h -2.4 c -0.6,0 -1.1,-0.5 -1.1,-1.1 V 20.6 c 0,-0.6 0.5,-1.1 1.1,-1.1 H 25 c 0.6,0 1.1,0.5 1.1,1.1 z m 5.4,1.6 C 31.5,39.5 31,40 30.4,40 H 28 c -0.6,0 -1.1,-0.5 -1.1,-1.1 V 19 c 0,-0.6 0.5,-1.1 1.1,-1.1 h 2.4 c 0.6,0 1.1,0.5 1.1,1.1 z m 5.4,-3 c 0,0.6 -0.5,1.1 -1.1,1.1 h -2.4 c -0.6,0 -1.1,-0.5 -1.1,-1.1 V 22.2 c 0,-0.6 0.5,-1.1 1.1,-1.1 h 2.4 c 0.6,0 1.1,0.5 1.1,1.1 z"
   id="path20"
   inkscape:connector-curvature="0"
   style="fill:#d32f2f" />
</svg>