<?xml version="1.0" encoding="UTF-8" standalone="no"?>
<!-- Generator: Adobe Illustrator 22.1.0, SVG Export Plug-In . SVG Version: 6.00 Build 0)  -->

<svg
   xmlns:dc="http://purl.org/dc/elements/1.1/"
   xmlns:cc="http://creativecommons.org/ns#"
   xmlns:rdf="http://www.w3.org/1999/02/22-rdf-syntax-ns#"
   xmlns:svg="http://www.w3.org/2000/svg"
   xmlns="http://www.w3.org/2000/svg"
   xmlns:sodipodi="http://sodipodi.sourceforge.net/DTD/sodipodi-0.dtd"
   xmlns:inkscape="http://www.inkscape.org/namespaces/inkscape"
   version="1.1"
   id="Livello_1"
   x="0px"
   y="0px"
   viewBox="0 0 53.299999 52.700001"
   xml:space="preserve"
   sodipodi:docname="bitsong_logo_circle_red.svg"
   width="53.299999"
   height="52.700001"
   inkscape:version="0.92.3 (2405546, 2018-03-11)"><metadata
   id="metadata27"><rdf:RDF><cc:Work
       rdf:about=""><dc:format>image/svg+xml</dc:format><dc:type
         rdf:resource="http://purl.org/dc/dcmitype/StillImage" /><dc:title></dc:title></cc:Work></rdf:RDF></metadata><defs
   id="defs25" /><sodipodi:namedview
   pagecolor="#ffffff"
   bordercolor="#666666"
   borderopacity="1"
   objecttolerance="10"
   gridtolerance="10"
   guidetolerance="10"
   inkscape:pageopacity="0"
   inkscape:pageshadow="2"
   inkscape:window-width="1853"
   inkscape:window-height="1025"
   id="namedview23"
   showgrid="false"
   inkscape:zoom="1.52"
   inkscape:cx="15.789474"
   inkscape:cy="49.7"
   inkscape:window-x="67"
   inkscape:window-y="27"
   inkscape:window-maximized="1"
   inkscape:current-layer="Livello_1"
   fit-margin-top="0"
   fit-margin-left="0"
   fit-margin-right="0"
   fit-margin-bottom="0" />
<style
   type="text/css"
   id="style2">
	.st0{fill:#D32F2F;}
	.st1{fill:url(#SVGID_1_);}
	.st2{fill:url(#SVGID_2_);}
	.st3{fill:#FFFFFF;}
	.st4{fill:#444444;}
	.st5{fill:#D9D9D9;}
</style>

<path
   class="st0"
   d="m 26.6,0 c -2,0 -4,0.2 -6,0.7 0,0.1 0,0.2 0,0.3 v 32.5 c 0,0.7 -0.6,1.2 -1.2,1.2 H 17 c -0.5,0 -0.9,-0.4 -0.9,-0.9 V 2.1 C 6.6,6.1 0,15.5 0,26.3 0,40.9 11.9,52.7 26.7,52.7 41.3,52.7 53.3,40.9 53.3,26.4 53.3,11.8 41.3,0 26.6,0 Z m -0.5,37.3 c 0,0.6 -0.5,1.1 -1.1,1.1 h -2.4 c -0.6,0 -1.1,-0.5 -1.1,-1.1 V 20.6 c 0,-0.6 0.5,-1.1 1.1,-1.1 H 25 c 0.6,0 1.1,0.5 1.1,1.1 z m 5.4,1.6 C 31.5,39.5 31,40 30.4,40 H 28 c -0.6,0 -1.1,-0.5 -1.1,-1.1 V 19 c 0,-0.6 0.5,-1.1 1.1,-1.1 h 2.4 c 0.6,0 1.1,0.5 1.1,1.1 z m 5.4,-3 c 0,0.6 -0.5,1.1 -1.1,1.1 h -2.4 c -0.6,0 -1.1,-0.5 -1.1,-1.1 V 22.2 c 0,-0.6 0.5,-1.1 1.1,-1.1 h 2.4 c 0.6,0 1.1,0.5 1.1,1.1 z"
   id="path20"
   inkscape:connector-curvature="0"
   style="fill:#d32f2f" />
</svg>